PathFileType	4	(X/Y/Z)	C:/Users/beibeiliu/ov580/test_trc/User2\sequence.5_training_dense_left.trc
DataRate	CameraRate	NumFrames	NumMarkers	Units	OrigDataRate	OrigDataStartFrame	OrigNumFrames
120	120	14	19	mm	120	105	417
Frame#	Time	ThumbCMC			ThumbMCP			ThumbIP			ThumbTip			IndexMCP			IndexPIP			IndexTip			MiddleMCP			MiddlePIP			MiddleTip			RingMCP			RingPIP			RingTip			PinkyMCP			PinkyPIP			PinkyTip			BackHand1			BackHand2			BackHand3	
		X0	Y0	Z0	X1	Y1	Z1	X2	Y2	Z2	X3	Y3	Z3	X4	Y4	Z4	X5	Y5	Z5	X6	Y6	Z6	X7	Y7	Z7	X8	Y8	Z8	X9	Y9	Z9	X10	Y10	Z10	X11	Y11	Z11	X12	Y12	Z12	X13	Y13	Z13	X14	Y14	Z14	X15	Y15	Z15	X16	Y16	Z16	X17	Y17	Z17	X18	Y18	Z18	
104	0.866667	-114.765	-0.500108	100.555	-111.862	-34.1708	80.0812	-117.181	-63.6344	59.5568	-140.063	-78.0235	43.3082	-137.548	6.26377	20.0314	-140.147	-2.90285	-7.87805	-144.385	-11.2749	-34.9737	-167.123	-17.8467	23.7081	-161.056	-54.145	20.5052	-145.822	-66.7978	57.4661	-183.406	-31.3553	34.1835	-174.573	-58.8055	36.1688	-154.918	-68.3479	67.9722	-196.764	-29.6595	56.7691	-181.089	-60.7636	57.4699	-162.685	-63.3561	84.4056	-182.969	19.3415	80.3822	-176.985	33.2949	115.066	-141.356	30.2	89.4191	
105	0.875	-115.384	1.34752	96.9463	-109.561	-31.4478	79.7615	-119.341	-57.0557	56.4439	-133.442	-72.9775	44.293	-135.044	12.7169	21.2754	-140.049	7.8276	-3.49545	-141.428	5.42235	-35.0001	-161.884	-11.2184	21.4329	-159.782	-47.2992	16.2376	-144.712	-65.0142	50.3647	-181.779	-22.1248	35.9888	-170.655	-56.4755	35.2516	-152.911	-64.8871	67.7863	-198.201	-30.1209	55.6792	-181.671	-59.2389	56.4798	-159.082	-57.1913	78.48	-177.569	21.839	81.6093	-172.823	33.997	115.102	-145.214	30.8113	87.4565	
106	0.883333	-109.643	2.29194	97.4226	-104.755	-30.7853	79.4878	-116.288	-56.1824	54.1304	-137.096	-70.7678	38.4259	-136.566	16.2846	18.7354	-138.811	13.4757	-5.98729	-143.408	9.90589	-32.8233	-164.276	-10.5108	19.0674	-159.678	-44.4956	15.7249	-147.146	-63.5111	50.725	-180.993	-20.0741	34.9172	-174.771	-52.6068	34.8925	-156.699	-62.9495	63.8719	-194.302	-29.6221	52.1178	-181.8	-58.9778	57.6516	-158.01	-56.1949	84.4127	-180.199	21.2471	81.335	-172.728	33.7379	116.919	-139.825	33.969	90.1424	
107	0.891667	-111.662	2.73629	99.55	-108.257	-29.969	75.6711	-115.557	-54.4517	55.9162	-133.759	-70.5735	38.5386	-135.616	16.0083	22.2465	-140.699	10.4562	-5.19348	-147.048	2.48903	-32.4523	-164.543	-11.3414	20.4293	-158.596	-46.9558	17.4848	-148.26	-63.5138	48.1962	-182.395	-22.4463	35.341	-177.181	-53.5454	35.4604	-153.626	-62.732	63.8509	-195.544	-28.0434	53.4746	-180.65	-56.1464	56.5475	-158.061	-56.1138	80.6083	-180.992	22.3203	82.6495	-172.146	33.8158	116.809	-140.931	36.0813	88.6927	
108	0.9	-110.68	2.97907	99.2209	-109.463	-29.5247	79.0808	-114.062	-56.9262	57.3707	-131.368	-73.1125	44.5338	-136.744	8.4749	20.2601	-141.78	-2.44871	-5.47632	-144.927	-17.5558	-32.4354	-162.126	-14.3041	20.2235	-158.101	-51.8338	21.0838	-143.828	-65.5218	53.3222	-182.51	-27.4843	34.8567	-176.351	-56.1052	37.3023	-154.532	-64.4654	67.1513	-195.467	-30.1497	55.3694	-180.51	-60.7775	59.9815	-158.53	-60.5546	79.8892	-177.724	22.5416	81.4478	-171.384	35.4152	112.721	-141.634	32.4092	87.1922	
109	0.908333	-111.853	1.09132	97.1658	-104.485	-33.2051	80.906	-115.471	-60.1192	62.5438	-134.422	-76.8726	47.2502	-140.436	-5.25065	20.0542	-142.523	-20.3235	0.794837	-146.423	-40.7455	-18.5328	-162.897	-16.7406	25.8822	-159.012	-56.3258	23.3965	-148.237	-68.658	57.1114	-181.456	-29.0316	37.1346	-173.303	-61.027	41.6901	-157.675	-69.2868	68.7126	-196.756	-32.8649	56.1773	-179.129	-61.121	59.3944	-161.198	-64.7142	85.223	-177.941	20.6185	84.4935	-170.294	36.8004	113.388	-139.497	33.4945	88.2751	
110	0.916667	-109.08	0.490595	100.878	-106.256	-36.9739	81.0251	-117.64	-63.7021	64.0517	-137.188	-77.7456	53.1355	-140.92	-12.6591	22.7501	-146.618	-35.5221	4.51834	-148.504	-55.5218	-9.72907	-163.882	-23.9262	25.4704	-161.699	-61.0993	27.8914	-143.891	-70.7665	64.5261	-181.27	-32.0684	39.1098	-175.432	-63.5403	42.4888	-157.924	-73.2783	72.5334	-195.094	-33.7018	58.4708	-182.251	-63.3165	61.4106	-163.099	-64.5845	84.8276	-179.505	17.5159	85.0815	-172.378	34.1215	114.13	-139.52	31.5417	87.1574	
111	0.925	-111.689	-0.240211	99.6981	-107.055	-34.3992	86.6714	-115.986	-63.3127	66.892	-133.685	-82.0907	54.6622	-141.794	-12.0401	22.6704	-146.699	-31.2946	3.87615	-150.437	-56.6582	-13.2863	-165.258	-24.8523	25.5304	-164.007	-60.684	28.3429	-146.81	-71.5789	65.1594	-184.97	-35.0742	42.3166	-178.232	-66.1223	44.5021	-158.139	-74.5927	72.7485	-199.902	-33.8117	63.0411	-186.87	-66.307	62.0518	-162.548	-68.1928	90.084	-179.664	13.9532	81.6278	-171.782	31.7449	114.16	-144.625	29.1029	90.0178	
112	0.933333	-110.045	-0.282614	101.269	-108.13	-36.1639	83.5349	-117.723	-63.2821	65.3967	-136.575	-82.4865	52.385	-140.508	-4.57481	22.6696	-141.977	-20.9284	-3.39492	-148.035	-40.7395	-25.4509	-170.331	-21.4479	29.396	-162.332	-57.4114	23.9398	-147.726	-71.8105	58.2237	-185.286	-34.9902	40.7815	-177.882	-64.5001	42.7951	-156.856	-73.279	70.1767	-198.799	-37.0849	60.0918	-185.546	-63.4692	60.5977	-162.697	-64.6964	86.7983	-182.011	14.8584	87.3871	-173.54	29.4842	114.022	-145.456	29.5208	88.5656	
113	0.941667	-111.609	-2.0833	98.3561	-108.481	-34.2312	83.8829	-117.691	-63.5838	62.4023	-138.92	-80.2477	48.2497	-140.5	3.09665	24.0027	-142.777	-6.20203	-6.15953	-145.99	-16.4996	-31.7694	-171.614	-21.593	24.9369	-163.157	-53.8186	20.9407	-148.013	-68.7147	60.0156	-185.086	-32.4273	37.9694	-176.619	-60.6509	39.8402	-156.941	-71.9001	71.4062	-200.478	-33.7259	60.9804	-185.274	-66.0339	61.8168	-162.853	-64.4703	87.3633	-179.869	16.2373	83.5856	-177.462	29.4455	117.455	-144.274	29.8356	92.3714	
114	0.95	-114.745	0.20477	102.256	-112.414	-34.4458	78.7375	-121.596	-60.9249	57.3809	-140.473	-75.4741	47.8581	-141.153	10.2126	23.5586	-142.837	3.83299	-4.98047	-149.794	-0.682771	-28.1869	-167.63	-13.9128	24.4489	-164.817	-52.9562	21.6342	-149.535	-67.4729	49.5111	-188.556	-30.0438	36.5809	-179.247	-56.8567	37.1192	-158.771	-69.0477	64.6832	-199.661	-29.2984	59.9009	-185.473	-60.402	56.8271	-165.13	-64.2056	82.5771	-182.304	16.9365	88.9462	-179.068	27.6922	115.773	-148.009	31.4035	93.6935	
115	0.958333	-117.55	0.14249	99.1166	-112.509	-30.9001	81.4556	-121.019	-59.8618	55.1175	-140.77	-73.0752	43.6744	-143.172	13.7102	24.9058	-146.076	9.55508	-5.45002	-149.684	6.18119	-28.0983	-173.642	-12.516	24.58	-168.923	-50.6877	21.2169	-151.499	-64.7221	48.0798	-186.996	-23.518	38.3855	-177.414	-58.5137	38.0257	-158.187	-65.5962	64.7085	-202.622	-31.5239	57.2044	-188.819	-61.1285	58.5702	-162.371	-61.311	80.0454	-184.687	17.4104	86.8973	-177.143	29.7104	117.042	-144.704	31.3014	91.6608	
116	0.966667	-116.88	0.703829	101.49	-114.508	-32.9763	76.8507	-120.636	-58.8926	57.5888	-144.248	-72.1312	44.335	-147.59	10.3761	25.4833	-152.228	5.41384	-1.06362	-156.22	-1.17835	-29.4053	-175.469	-12.0408	26.911	-168.39	-49.9676	19.4309	-154.59	-65.9078	52.8613	-190.953	-25.2857	40.4485	-179.519	-58.2307	38.8028	-161.666	-68.5874	66.5861	-201.976	-31.7121	58.2564	-191.351	-61.8956	59.0313	-166.168	-66.117	81.4259	-183.33	20.0502	85.9095	-181.145	30.34	118.481	-146.746	33.0164	94.0265	
117	0.975	-116.338	-1.46985	101.833	-112.61	-36.5647	78.9179	-122.382	-60.9521	61.3258	-143.278	-75.9892	48.952	-151.841	2.09175	22.8997	-153.645	-8.86299	-3.029	-161.259	-22.0056	-26.7223	-176.856	-15.8585	28.7392	-174.3	-52.8007	24.2389	-158.495	-69.3338	55.6458	-189.282	-28.919	41.3506	-183.055	-58.3379	40.0615	-162.846	-70.871	70.2577	-206.252	-32.184	64.1122	-192.206	-64.0317	63.0371	-166.062	-68.3594	83.4552	-185.617	16.9315	85.2456	-175.519	30.0145	120.536	-151.205	29.502	92.1769	
